<?xml version="1.0" standalone="no"?>
<!DOCTYPE svg PUBLIC "-//W3C//DTD SVG 20010904//EN"
 "http://www.w3.org/TR/2001/REC-SVG-20010904/DTD/svg10.dtd">
<svg version="1.0" xmlns="http://www.w3.org/2000/svg"
 width="1024.000000pt" height="1024.000000pt" viewBox="0 0 1024.000000 1024.000000"
 preserveAspectRatio="xMidYMid meet">

<g transform="translate(0.000000,1024.000000) scale(0.100000,-0.100000)"
fill="#000000" stroke="none">
<path d="M2954 7516 c-265 -60 -482 -253 -566 -504 l-32 -97 -7 -520 c-3 -328
-10 -532 -16 -552 -34 -100 -109 -175 -211 -213 -109 -41 -131 -83 -132 -251
0 -167 28 -234 109 -260 69 -22 127 -58 165 -99 73 -81 70 -57 77 -630 5 -489
7 -519 28 -595 83 -303 316 -525 605 -576 127 -22 213 11 237 89 6 22 9 85 7
149 -3 107 -4 113 -34 150 -26 32 -45 43 -124 68 -113 37 -174 86 -217 173
l-28 57 -6 520 c-6 579 -5 570 -78 720 -22 44 -67 113 -100 153 -34 39 -61 75
-61 78 0 3 20 29 46 57 92 102 163 257 184 403 5 38 10 270 10 515 0 493 2
510 63 591 44 58 115 104 183 119 63 14 107 40 138 82 18 25 21 45 24 150 3
135 -7 172 -60 211 -35 25 -122 30 -204 12z"/>
<path d="M5430 7500 c-673 -83 -1253 -555 -1469 -1195 -108 -322 -119 -722
-27 -1056 155 -568 602 -1039 1151 -1213 530 -169 1092 -96 1522 196 41 28 44
28 61 11 10 -10 104 -106 210 -214 l192 -196 -22 -49 c-44 -99 -23 -243 52
-355 16 -24 156 -170 312 -325 314 -312 345 -335 486 -356 136 -22 275 36 411
170 172 171 213 346 125 532 -33 70 -55 94 -327 367 -266 266 -298 295 -361
324 -89 42 -192 50 -293 24 l-68 -17 -197 198 c-109 109 -198 200 -198 203 0
3 24 36 54 75 383 504 483 1173 260 1751 -218 563 -728 994 -1309 1106 -116
23 -445 33 -565 19z m397 -456 c284 -42 507 -151 712 -348 125 -122 210 -237
281 -381 130 -264 169 -544 116 -837 -84 -463 -425 -851 -879 -1003 -206 -68
-491 -83 -697 -36 -251 57 -474 184 -663 377 -431 441 -487 1181 -128 1684
297 415 765 618 1258 544z"/>
<path d="M4840 6302 c-19 -9 -45 -33 -58 -52 -21 -30 -23 -45 -20 -107 4 -82
21 -114 78 -144 32 -18 65 -19 455 -19 417 0 421 0 465 23 62 32 82 73 78 164
-3 60 -7 76 -28 99 -50 53 -55 54 -512 54 -383 0 -426 -2 -458 -18z"/>
<path d="M4829 5399 c-51 -30 -73 -73 -74 -139 0 -72 26 -118 85 -148 l45 -22
767 2 c756 3 767 3 794 24 54 40 69 70 69 139 0 69 -15 99 -69 139 -27 21 -37
21 -804 23 -773 3 -777 3 -813 -18z"/>
<path d="M3335 6306 c-65 -29 -102 -106 -89 -185 15 -95 79 -140 198 -141 131
0 198 57 198 168 0 85 -30 140 -89 163 -36 14 -183 10 -218 -5z"/>
<path d="M3335 5406 c-39 -17 -74 -56 -83 -91 -5 -16 -5 -55 -1 -88 12 -100
67 -137 209 -137 125 0 184 52 183 162 -1 114 -67 168 -203 168 -41 -1 -88 -7
-105 -14z"/>
<path d="M3370 4521 c-88 -19 -120 -63 -120 -168 0 -63 3 -75 26 -103 51 -60
50 -60 427 -60 341 0 344 0 378 23 68 46 62 125 -16 214 -87 99 -81 98 -390
100 -148 1 -286 -2 -305 -6z"/>
</g>
</svg>
